<?xml version="1.0" encoding="UTF-8" standalone="no"?>
<!-- Created with Inkscape (http://www.inkscape.org/) -->

<svg
   width="200mm"
   height="200mm"
   viewBox="0 0 200 200"
   version="1.1"
   id="svg1"
   inkscape:version="1.3.2 (091e20ef0f, 2023-11-25, custom)"
   sodipodi:docname="tech.svg"
   xmlns:inkscape="http://www.inkscape.org/namespaces/inkscape"
   xmlns:sodipodi="http://sodipodi.sourceforge.net/DTD/sodipodi-0.dtd"
   xmlns="http://www.w3.org/2000/svg"
   xmlns:svg="http://www.w3.org/2000/svg">
  <sodipodi:namedview
     id="namedview1"
     pagecolor="#ffffff"
     bordercolor="#000000"
     borderopacity="0.25"
     inkscape:showpageshadow="2"
     inkscape:pageopacity="0.0"
     inkscape:pagecheckerboard="0"
     inkscape:deskcolor="#d1d1d1"
     inkscape:document-units="mm"
     inkscape:zoom="1"
     inkscape:cx="405"
     inkscape:cy="516.5"
     inkscape:window-width="1821"
     inkscape:window-height="1325"
     inkscape:window-x="0"
     inkscape:window-y="0"
     inkscape:window-maximized="1"
     inkscape:current-layer="layer1" />
  <defs
     id="defs1" />
  <g
     inkscape:label="Layer 1"
     inkscape:groupmode="layer"
     id="layer1">
    <path
       sodipodi:type="spiral"
       style="fill:none;fill-opacity:1;fill-rule:evenodd;stroke:#000000;stroke-width:0.753984;stroke-linecap:round;stroke-dasharray:none"
       id="path4"
       sodipodi:cx="102.77729"
       sodipodi:cy="99.301109"
       sodipodi:expansion="1"
       sodipodi:revolution="1.2758893"
       sodipodi:radius="3.7027762"
       sodipodi:argument="-16.048128"
       sodipodi:t0="0"
       d="m 102.77729,99.301109 c -0.41151,0.145643 -0.39935,-0.482851 -0.24207,-0.683955 0.42622,-0.54498 1.25376,-0.270393 1.60998,0.199821 0.6372,0.841103 0.19426,2.024305 -0.64171,2.536005 -1.22682,0.75093 -2.80713,0.1209 -3.46202,-1.0836 -0.872872,-1.60542 -0.04905,-3.594553 1.52548,-4.388048 0.17889,-0.09015 0.36528,-0.165322 0.55655,-0.224823"
       transform="matrix(3.8584849,0.97130829,-0.97130829,3.8584849,-198.51962,-381.93377)" />
    <path
       sodipodi:type="spiral"
       style="fill:none;fill-opacity:1;fill-rule:evenodd;stroke:#000000;stroke-width:0.753984;stroke-linecap:round;stroke-linejoin:round;stroke-dasharray:none"
       id="path4-2"
       sodipodi:cx="102.77729"
       sodipodi:cy="99.301109"
       sodipodi:expansion="1"
       sodipodi:revolution="1.2402219"
       sodipodi:radius="3.5992663"
       sodipodi:argument="-16.048128"
       sodipodi:t0="0"
       d="m 102.77729,99.301109 c -0.41151,0.145643 -0.39935,-0.482851 -0.24207,-0.683955 0.42622,-0.54498 1.25376,-0.270394 1.60998,0.199821 0.6372,0.841103 0.19426,2.024305 -0.64171,2.536005 -1.22682,0.75093 -2.80713,0.1209 -3.46202,-1.0836 -0.830372,-1.527249 -0.125114,-3.430736 1.32889,-4.281164"
       transform="matrix(-3.7655255,-1.2853647,1.2853647,-3.7655255,360.31446,606.50418)" />
    <circle
       style="fill:none;stroke:#000000;stroke-width:3;stroke-dasharray:none;stroke-opacity:1"
       id="path2"
       cx="101.5"
       cy="101.5"
       r="40" />
    <path
       style="fill:none;stroke:#000000;stroke-width:3;stroke-linecap:round;stroke-dasharray:none;stroke-opacity:1"
       id="path2-6"
       sodipodi:type="arc"
       sodipodi:cx="101.30312"
       sodipodi:cy="101.47476"
       sodipodi:rx="20.530565"
       sodipodi:ry="20.530565"
       sodipodi:start="0.62452318"
       sodipodi:end="2.2864666"
       sodipodi:arc-type="arc"
       d="m 117.95838,113.4792 a 20.530565,20.530565 0 0 1 -14.29329,8.38981 20.530565,20.530565 0 0 1 -15.832551,-4.90078"
       sodipodi:open="true" />
  </g>
</svg>
