<svg xmlns="http://www.w3.org/2000/svg" version="1.1" xmlns:xlink="http://www.w3.org/1999/xlink" xmlns:svgjs="http://svgjs.dev/svgjs" viewBox="100 100 600 600" opacity="1"><defs><linearGradient x1="50%" y1="0%" x2="50%" y2="100%" id="cccoil-grad"><stop stop-color="hsl(0, 0%, 100%)" stop-opacity="1" offset="0%"></stop><stop stop-color="hsl(0, 0%, 100%)" stop-opacity="1" offset="100%"></stop></linearGradient></defs><g stroke="url(#cccoil-grad)" fill="none" stroke-linecap="round"><circle r="207" cx="400" cy="400" stroke-width="9" stroke-dasharray="650 1301"></circle><circle r="195.5" cx="400" cy="400" stroke-width="9" stroke-dasharray="578 1228" transform="rotate(21, 400, 400)"></circle><circle r="184" cx="400" cy="400" stroke-width="9" stroke-dasharray="510 1156" transform="rotate(42, 400, 400)"></circle><circle r="172.5" cx="400" cy="400" stroke-width="9" stroke-dasharray="446 1084" transform="rotate(64, 400, 400)"></circle><circle r="161" cx="400" cy="400" stroke-width="9" stroke-dasharray="387 1012" transform="rotate(85, 400, 400)"></circle><circle r="149.5" cx="400" cy="400" stroke-width="9" stroke-dasharray="332 939" transform="rotate(106, 400, 400)"></circle><circle r="138" cx="400" cy="400" stroke-width="9" stroke-dasharray="281 867" transform="rotate(127, 400, 400)"></circle><circle r="126.5" cx="400" cy="400" stroke-width="9" stroke-dasharray="234 795" transform="rotate(148, 400, 400)"></circle><circle r="115" cx="400" cy="400" stroke-width="9" stroke-dasharray="191 723" transform="rotate(169, 400, 400)"></circle><circle r="103.5" cx="400" cy="400" stroke-width="9" stroke-dasharray="153 650" transform="rotate(191, 400, 400)"></circle><circle r="92" cx="400" cy="400" stroke-width="9" stroke-dasharray="119 578" transform="rotate(212, 400, 400)"></circle><circle r="80.5" cx="400" cy="400" stroke-width="9" stroke-dasharray="89 506" transform="rotate(233, 400, 400)"></circle><circle r="69" cx="400" cy="400" stroke-width="9" stroke-dasharray="64 434" transform="rotate(254, 400, 400)"></circle><circle r="57.5" cx="400" cy="400" stroke-width="9" stroke-dasharray="43 361" transform="rotate(275, 400, 400)"></circle><circle r="46" cx="400" cy="400" stroke-width="9" stroke-dasharray="26 289" transform="rotate(296, 400, 400)"></circle><circle r="34.5" cx="400" cy="400" stroke-width="9" stroke-dasharray="13 217" transform="rotate(318, 400, 400)"></circle><circle r="23" cx="400" cy="400" stroke-width="9" stroke-dasharray="4 145" transform="rotate(339, 400, 400)"></circle><circle r="11.5" cx="400" cy="400" stroke-width="10" stroke-dasharray="0 72" transform="rotate(360, 400, 400)"></circle></g></svg>